<?xml version="1.0" standalone="no"?>
<!DOCTYPE svg PUBLIC "-//W3C//DTD SVG 20010904//EN"
 "http://www.w3.org/TR/2001/REC-SVG-20010904/DTD/svg10.dtd">
<svg version="1.0" xmlns="http://www.w3.org/2000/svg"
 width="3616.000000pt" height="3616.000000pt" viewBox="0 0 3616.000000 3616.000000"
 preserveAspectRatio="xMidYMid meet">
<metadata>
Created by potrace 1.14, written by Peter Selinger 2001-2017
</metadata>
<g transform="translate(0.000000,3616.000000) scale(0.100000,-0.100000)"
fill="#000000" stroke="none">
<path d="M1078 23035 c-2 -2 -21 -5 -43 -8 -77 -11 -191 -41 -250 -67 -92 -40
-154 -71 -160 -80 -3 -6 -11 -8 -16 -5 -5 4 -9 1 -9 -4 0 -6 -5 -11 -10 -11
-20 0 -146 -98 -225 -175 -46 -44 -163 -192 -170 -215 -4 -11 -11 -20 -16 -20
-6 0 -8 -4 -5 -9 4 -5 3 -11 -2 -13 -14 -6 -107 -209 -117 -258 -2 -8 -14 -53
-27 -100 l-23 -85 -2 -3870 c-2 -3300 0 -3882 12 -3950 16 -88 33 -159 45
-190 4 -11 14 -36 21 -55 20 -56 92 -204 106 -218 7 -7 13 -17 13 -21 0 -4 8
-17 18 -29 9 -11 24 -30 32 -43 22 -32 95 -115 139 -157 172 -163 343 -250
626 -319 17 -4 468 -9 1003 -10 929 -4 972 -3 972 14 1 10 2 1125 3 2478 2
1353 6 2474 10 2490 14 56 48 152 66 188 31 60 106 160 155 204 50 45 154 113
174 113 6 0 12 4 12 9 0 5 10 11 23 14 12 3 47 12 77 21 30 9 89 18 130 22 41
3 80 7 87 9 6 2 14 1 17 -3 4 -3 19 -7 34 -9 47 -6 126 -26 162 -41 19 -9 37
-16 40 -17 14 -4 66 -30 70 -36 3 -4 28 -20 56 -35 29 -16 105 -60 170 -99 65
-38 123 -72 129 -74 5 -2 12 -7 15 -11 4 -6 24 -18 133 -79 16 -9 36 -21 45
-26 64 -39 321 -192 337 -201 98 -55 121 -68 125 -74 3 -4 20 -13 38 -21 17
-8 32 -17 32 -21 0 -5 4 -8 10 -8 13 0 114 -62 118 -72 2 -4 10 -8 18 -8 8 0
20 -5 27 -11 7 -5 50 -32 97 -59 47 -27 90 -53 95 -57 22 -17 71 -44 88 -50 9
-3 17 -9 17 -14 0 -5 6 -9 13 -9 7 0 36 -16 66 -35 29 -19 56 -35 60 -35 3 0
22 -11 42 -24 20 -14 52 -33 71 -44 19 -11 46 -26 59 -34 13 -7 26 -15 29 -18
9 -9 45 -30 70 -41 13 -5 27 -13 30 -17 3 -4 25 -18 50 -31 25 -13 64 -37 87
-53 24 -16 43 -26 43 -23 0 3 15 -4 33 -17 43 -31 67 -46 97 -60 14 -7 27 -15
30 -18 3 -3 19 -12 35 -20 17 -8 32 -17 35 -20 8 -8 111 -70 116 -70 3 0 24
-13 47 -28 23 -15 63 -39 90 -52 26 -14 47 -28 47 -31 0 -3 16 -11 35 -19 19
-8 35 -17 35 -22 0 -4 7 -8 15 -8 8 0 15 -3 15 -8 0 -4 13 -13 30 -20 16 -8
89 -49 160 -93 72 -43 135 -79 140 -79 6 0 10 -4 10 -9 0 -9 41 -27 48 -22 2
1 12 -8 23 -20 10 -12 19 -19 19 -15 0 4 13 -2 29 -13 16 -12 34 -21 40 -21 6
0 11 -4 11 -10 0 -5 4 -10 9 -10 4 0 61 -31 125 -70 65 -38 121 -70 127 -70 5
0 9 -4 9 -10 0 -5 5 -10 10 -10 6 0 39 -18 74 -40 35 -22 68 -40 75 -40 6 0
11 -4 11 -8 0 -4 22 -19 50 -33 27 -13 50 -27 50 -31 0 -5 4 -8 9 -8 5 0 42
-20 83 -44 40 -24 141 -84 223 -132 83 -48 152 -92 153 -96 2 -4 8 -6 13 -2 5
3 9 0 9 -5 0 -6 5 -11 10 -11 6 0 27 -11 48 -24 20 -13 93 -56 162 -96 228
-134 282 -176 354 -271 40 -53 105 -173 110 -201 1 -7 4 -17 7 -23 4 -5 10
-28 14 -50 5 -22 10 -47 12 -55 4 -17 4 -196 0 -225 -4 -25 -17 -75 -24 -95
-4 -8 -7 -19 -7 -25 -1 -5 -9 -27 -19 -49 -9 -21 -17 -40 -17 -43 0 -2 -20
-35 -44 -72 -48 -74 -118 -148 -181 -189 -22 -15 -45 -32 -52 -38 -6 -6 -25
-17 -42 -24 -17 -7 -31 -16 -31 -21 0 -5 -5 -9 -11 -9 -10 0 -198 -108 -209
-120 -3 -3 -16 -11 -30 -18 -14 -6 -32 -16 -40 -22 -66 -42 -183 -110 -191
-110 -5 0 -9 -5 -9 -12 0 -6 -3 -9 -6 -5 -5 5 -110 -56 -124 -72 -3 -3 -10 -7
-17 -8 -6 -1 -29 -14 -50 -29 -21 -14 -47 -30 -58 -35 -21 -9 -39 -20 -87 -52
-16 -10 -28 -15 -28 -10 0 4 -5 0 -11 -10 -6 -9 -14 -15 -20 -12 -5 4 -9 1 -9
-4 0 -6 -7 -11 -15 -11 -8 0 -15 -4 -15 -10 0 -5 -5 -10 -11 -10 -10 0 -134
-71 -156 -90 -7 -5 -14 -10 -17 -10 -4 0 -242 -140 -286 -168 -14 -9 -28 -15
-32 -14 -5 1 -8 -2 -8 -7 0 -5 -10 -13 -22 -17 -25 -8 -130 -73 -139 -86 -3
-6 -10 -10 -15 -10 -13 -1 -58 -21 -64 -29 -5 -7 -20 -16 -137 -84 -37 -22
-77 -45 -88 -52 -11 -7 -27 -16 -35 -20 -8 -4 -50 -29 -92 -55 -43 -26 -82
-48 -88 -48 -5 0 -10 -3 -10 -7 0 -5 -23 -19 -51 -33 -28 -14 -54 -31 -56 -37
-3 -7 -8 -11 -12 -9 -3 2 -24 -7 -46 -20 l-40 -24 2320 1 c2481 1 2370 -2
2540 49 39 11 75 22 80 23 22 6 226 109 238 121 6 6 34 27 62 46 63 44 202
182 245 246 19 27 39 54 45 60 5 6 26 42 45 80 19 38 38 71 41 74 3 3 11 19
16 35 6 17 22 60 36 98 14 37 23 67 21 67 -3 0 0 8 5 18 5 10 13 38 16 62 4
25 9 54 11 65 2 11 6 36 9 55 4 25 10 8530 6 8783 l-1 37 -1205 0 c-663 0
-1205 -3 -1205 -8 0 -4 13 -33 30 -65 16 -31 26 -57 22 -57 -4 0 -2 -4 4 -8 5
-4 18 -25 29 -47 10 -22 56 -116 102 -210 45 -93 83 -175 83 -181 0 -7 3 -14
8 -16 4 -1 21 -32 38 -68 33 -67 161 -331 292 -600 42 -85 75 -158 74 -162 -1
-5 2 -8 8 -8 5 0 10 -5 10 -10 0 -6 62 -138 139 -294 76 -155 142 -292 145
-304 4 -12 12 -22 18 -22 6 0 9 -3 5 -6 -3 -3 10 -35 29 -71 19 -36 34 -71 34
-77 0 -7 6 -18 13 -25 6 -6 12 -15 13 -19 0 -4 23 -53 51 -109 28 -56 48 -104
45 -107 -3 -3 -80 -6 -171 -7 -91 0 -173 0 -181 0 -33 -1 -714 0 -1123 0
l-327 1 -116 237 c-64 131 -132 272 -152 313 -21 41 -41 78 -47 82 -5 4 -7 8
-3 8 3 0 -24 62 -62 138 -140 284 -184 377 -182 385 1 4 -2 7 -8 7 -5 0 -10 4
-10 9 0 6 -57 126 -126 268 -70 142 -166 339 -214 438 -48 99 -133 273 -189
388 l-101 207 -606 0 c-333 0 -603 -3 -601 -7 19 -32 257 -526 257 -533 0 -6
5 -10 10 -10 6 0 10 -6 10 -13 0 -12 112 -245 250 -521 28 -54 50 -103 50
-108 0 -5 9 -22 19 -36 10 -15 19 -30 20 -34 1 -5 42 -91 91 -193 50 -101 90
-189 90 -195 0 -5 5 -10 10 -10 6 0 10 -4 10 -10 0 -5 26 -63 57 -127 32 -65
57 -122 58 -126 0 -4 6 -11 13 -16 8 -5 13 -10 12 -12 -1 -2 3 -17 9 -32 6
-16 11 -31 11 -34 0 -3 10 -19 22 -36 13 -18 22 -34 22 -37 -2 -5 104 -228
162 -343 l24 -47 -492 -1 c-271 0 -521 0 -555 1 -33 1 -220 2 -415 3 l-353 2
-47 95 c-136 275 -259 530 -259 537 0 5 -7 15 -15 25 -9 9 -17 22 -18 30 -1 7
-57 125 -124 261 -67 137 -122 253 -122 258 0 5 -4 9 -10 9 -5 0 -9 3 -8 8 1
4 -10 30 -25 59 -15 29 -27 59 -27 67 0 8 -3 16 -7 18 -6 2 -82 148 -88 168
-3 9 -55 114 -64 130 -5 8 -25 49 -44 90 -20 41 -94 194 -165 340 -71 146
-141 291 -156 323 l-27 57 -605 0 c-332 0 -604 -2 -604 -4 0 -1 26 -57 59
-122 139 -281 261 -536 261 -544 0 -6 5 -10 10 -10 6 0 9 -3 8 -7 -1 -5 37
-89 86 -188 49 -99 88 -181 87 -183 -3 -4 33 -66 42 -73 5 -3 8 -9 7 -13 -1
-7 47 -108 199 -416 41 -85 75 -158 73 -162 -1 -5 3 -8 8 -8 6 0 10 -4 10 -9
0 -9 66 -146 292 -608 l65 -133 -416 -1 c-229 0 -425 0 -436 0 -11 0 -232 0
-491 1 l-471 1 -37 77 c-21 42 -48 97 -60 122 -11 25 -24 47 -28 48 -5 2 -8 9
-8 15 0 6 -28 67 -61 136 -216 442 -269 552 -269 559 0 4 -6 14 -12 21 -7 6
-13 15 -14 19 -1 14 -48 107 -56 110 -4 2 -8 9 -8 16 0 6 -25 63 -56 126 -31
63 -106 216 -167 340 -61 124 -111 227 -111 230 -1 3 -23 47 -48 98 -26 50
-45 92 -42 92 2 0 0 6 -6 13 -6 6 -30 53 -54 102 -23 50 -71 150 -107 223
l-64 132 -367 -1 c-202 0 -368 -2 -370 -4z"/>
<path d="M31163 22613 l2 -428 100 -2 c55 -1 105 -3 110 -4 6 -1 14 -1 19 0
12 3 288 3 301 0 6 -1 14 0 20 1 5 1 85 1 177 1 159 0 168 1 168 20 1 10 1
197 1 414 0 217 0 402 -1 410 0 13 -57 15 -449 15 l-450 0 2 -427z"/>
<path d="M15276 22730 c-11 -43 -18 -79 -22 -124 -3 -27 -8 -54 -11 -59 -3 -4
-7 -29 -9 -55 -2 -26 -6 -58 -9 -72 -3 -14 -8 -42 -10 -62 -2 -21 -6 -50 -9
-65 -3 -15 -8 -46 -11 -68 -3 -23 -8 -52 -10 -65 -3 -14 -8 -43 -10 -65 -3
-22 -7 -51 -10 -65 -5 -26 -15 -98 -20 -137 -4 -26 -15 -98 -21 -128 -2 -11
-6 -42 -9 -69 -3 -27 -7 -51 -9 -55 -2 -3 -7 -31 -11 -61 -3 -30 -9 -68 -11
-85 -3 -16 -8 -43 -10 -60 -3 -16 -6 -41 -8 -55 -3 -14 -7 -47 -11 -75 -4 -27
-9 -59 -11 -70 -8 -34 -18 -109 -18 -132 -1 -13 -3 -23 -6 -23 -3 0 -5 -12 -6
-27 0 -16 -4 -45 -7 -65 -7 -39 -13 -78 -23 -138 -3 -19 -7 -46 -9 -60 -2 -14
-6 -41 -9 -60 -3 -19 -7 -46 -10 -60 -3 -14 -8 -46 -11 -70 -7 -51 -13 -94
-19 -130 -2 -14 -7 -45 -10 -70 -4 -25 -9 -56 -11 -70 -2 -14 -20 -131 -40
-260 -20 -129 -38 -246 -41 -260 -3 -14 -7 -45 -10 -70 -3 -25 -9 -62 -14 -82
-5 -27 -4 -38 4 -38 8 0 8 -2 0 -8 -10 -6 -25 -75 -30 -142 -1 -14 -3 -25 -4
-25 -1 0 -3 -9 -5 -20 -4 -27 -17 -115 -20 -140 -1 -11 -3 -20 -5 -20 -3 0 -7
-37 -12 -97 -1 -27 -5 -48 -8 -48 -3 0 -6 -8 -6 -17 -1 -20 -14 -116 -20 -153
-3 -14 -7 -41 -9 -60 -2 -19 -4 -35 -5 -35 -2 0 -4 -9 -5 -20 -1 -11 -5 -36
-8 -55 -9 -55 -20 -134 -20 -147 0 -7 -3 -13 -6 -13 -3 0 -6 -12 -7 -27 -1
-46 -14 -145 -20 -154 -3 -5 -6 -30 -8 -56 -2 -27 -6 -58 -10 -69 -4 -14 -2
-23 6 -26 18 -6 936 -3 942 3 5 5 10 33 21 114 4 28 9 64 12 80 2 17 6 41 8
55 2 14 4 25 5 25 1 0 3 18 5 40 3 22 7 56 10 75 3 19 8 49 10 65 2 17 6 44 9
60 3 17 6 45 8 63 1 18 6 36 10 38 5 3 6 9 3 13 -2 5 0 37 6 72 6 35 12 78 14
94 12 91 15 112 19 130 3 18 9 62 22 155 3 19 9 60 14 90 5 30 12 73 15 95 3
23 7 50 9 60 2 11 7 43 10 70 4 28 9 61 11 75 2 14 9 61 15 105 7 44 13 87 15
95 1 8 6 40 10 70 4 30 9 64 11 75 4 20 9 54 19 136 3 22 7 50 10 62 3 12 7
40 10 62 14 111 17 129 25 151 6 15 6 26 -1 30 -6 3 -6 10 -1 17 5 7 10 19 10
27 3 30 10 86 15 110 6 28 16 98 22 149 2 19 7 50 10 70 10 58 16 104 19 137
1 16 5 34 7 40 3 5 6 25 8 44 2 19 4 37 6 39 3 2 31 -56 35 -74 1 -2 17 -36
36 -75 19 -39 34 -72 34 -75 0 -2 18 -43 41 -92 22 -48 48 -104 56 -123 8 -19
28 -63 44 -98 16 -35 29 -69 29 -77 0 -8 4 -15 8 -15 5 0 15 -18 22 -40 7 -22
16 -40 20 -40 4 0 7 -7 7 -15 0 -8 9 -34 21 -57 44 -89 102 -221 102 -234 0
-7 3 -14 8 -16 4 -1 27 -50 52 -108 25 -58 48 -106 52 -108 5 -2 8 -10 8 -18
0 -8 5 -22 10 -32 8 -14 50 -106 55 -122 4 -12 26 -61 58 -130 19 -41 63 -138
97 -215 34 -77 72 -162 84 -190 92 -201 176 -394 176 -404 0 -6 5 -11 10 -11
6 0 10 -5 10 -11 0 -5 11 -35 25 -66 14 -30 27 -60 28 -67 1 -6 6 -14 10 -17
5 -3 10 -12 12 -20 9 -38 18 -59 26 -59 5 0 8 -3 7 -7 -1 -5 6 -25 15 -47 9
-21 17 -42 17 -47 0 -5 5 -9 12 -9 6 0 8 -3 5 -6 -3 -4 -1 -16 5 -28 7 -11 13
-23 13 -26 0 -3 11 -28 24 -57 l24 -52 110 0 c82 0 113 4 124 14 8 8 12 15 8
15 -3 0 1 10 9 22 9 12 16 30 16 39 0 9 7 22 15 29 9 7 13 15 11 17 -2 3 7 26
20 53 13 26 24 51 24 55 0 4 15 37 33 73 19 37 34 69 34 72 1 3 17 41 38 85
20 44 38 85 39 90 2 6 17 41 34 78 18 38 32 73 32 78 0 5 4 9 10 9 5 0 9 3 8
8 -2 9 7 30 45 112 16 36 45 101 64 145 20 44 49 109 65 145 43 93 51 114 50
123 -1 4 3 7 8 7 5 0 9 3 8 8 -1 8 7 29 45 112 24 53 85 187 142 315 42 95 52
117 86 191 18 38 33 74 33 79 1 6 3 12 6 15 7 6 27 53 27 60 0 3 6 16 13 30 8
14 13 28 12 33 -1 4 3 7 8 7 6 0 10 4 10 9 0 5 5 22 12 38 6 15 11 31 10 36
-1 4 3 7 8 7 6 0 10 9 10 20 0 11 4 20 10 20 5 0 9 3 8 8 -1 8 6 28 55 134 19
42 33 79 29 82 -3 3 0 6 6 6 7 0 12 4 12 10 0 5 13 38 29 72 47 104 77 171 90
206 8 17 18 32 23 32 5 0 7 4 4 9 -3 4 3 26 14 47 10 22 20 35 20 29 1 -5 3
-21 5 -35 3 -14 9 -59 16 -100 6 -41 13 -82 17 -90 3 -8 4 -19 3 -24 -1 -5 3
-43 9 -84 11 -71 14 -93 25 -167 8 -60 35 -241 41 -275 3 -19 7 -53 10 -75 3
-22 7 -51 10 -65 4 -27 15 -99 19 -140 2 -14 4 -25 5 -25 2 0 4 -9 5 -20 2
-11 5 -40 9 -64 10 -78 18 -135 22 -161 22 -133 35 -225 37 -267 1 -18 4 -33
7 -33 3 0 6 -12 6 -27 3 -44 14 -124 18 -132 2 -3 7 -31 10 -61 3 -30 8 -64
10 -75 2 -11 6 -41 10 -66 4 -25 9 -59 12 -75 3 -15 7 -47 9 -71 2 -23 6 -46
8 -50 3 -4 8 -35 11 -68 3 -33 8 -69 10 -80 3 -17 20 -127 31 -205 2 -14 6
-44 10 -68 4 -23 8 -52 10 -65 1 -12 5 -38 9 -57 3 -19 8 -53 11 -75 3 -22 7
-51 10 -65 l5 -25 468 0 c257 1 472 4 479 8 8 5 9 16 3 35 -5 15 -11 47 -14
72 -3 25 -8 56 -10 69 -3 14 -8 47 -11 75 -3 28 -8 58 -10 66 -2 8 -7 35 -9
60 -3 25 -10 68 -15 95 -5 28 -12 77 -16 110 -3 33 -8 67 -11 76 -3 9 -7 34
-10 55 -2 21 -14 98 -25 171 -11 73 -22 145 -24 160 -2 16 -6 46 -10 68 -18
111 -20 129 -30 198 -4 27 -8 56 -10 65 -5 30 -17 116 -20 147 -2 17 -4 30 -5
30 -1 0 -3 11 -5 25 -1 14 -6 45 -10 70 -4 25 -8 55 -8 68 -1 12 -3 22 -6 22
-4 0 -7 17 -9 38 -7 88 -10 117 -12 117 -2 0 -7 25 -14 70 -3 22 -8 60 -12 85
-4 25 -8 54 -10 65 -1 11 -3 20 -4 20 -1 0 -3 16 -5 35 -5 43 -7 58 -30 205
-3 17 -7 48 -10 70 -3 22 -8 56 -11 75 -4 19 -8 44 -9 55 -2 11 -6 43 -10 70
-4 28 -9 59 -10 70 -9 63 -17 114 -21 140 -3 17 -7 41 -9 55 -2 14 -6 39 -8
55 -3 17 -8 50 -12 75 -4 25 -9 59 -11 75 -3 17 -7 44 -9 60 -2 17 -6 41 -9
55 -3 14 -8 45 -10 70 -3 25 -7 54 -9 65 -3 11 -8 40 -11 65 -3 25 -8 56 -10
70 -15 83 -18 109 -20 140 -2 19 -6 44 -9 55 -3 11 -9 43 -12 70 -4 28 -9 64
-11 80 -3 17 -6 46 -8 66 -2 20 -7 51 -12 70 -4 19 -8 45 -10 59 -4 54 -15
124 -20 132 -3 5 -7 28 -9 51 -4 45 -11 99 -21 157 -4 19 -7 43 -7 53 -1 19
47 17 -597 18 -388 0 -349 3 -362 -28 -6 -16 -12 -30 -13 -33 -1 -3 -16 -36
-33 -73 -18 -38 -32 -71 -32 -74 0 -3 -6 -19 -14 -36 -50 -109 -78 -173 -80
-182 -2 -5 -11 -28 -21 -50 -11 -22 -19 -42 -20 -45 -3 -8 -25 -63 -40 -95
-52 -114 -65 -147 -65 -159 0 -7 -7 -19 -15 -26 -8 -7 -15 -21 -15 -31 0 -10
-5 -21 -10 -24 -6 -4 -8 -11 -5 -16 4 -5 1 -9 -4 -9 -6 0 -11 -6 -11 -14 0 -7
-7 -26 -14 -42 -8 -15 -13 -31 -10 -36 3 -4 0 -8 -5 -8 -6 0 -11 -9 -11 -20 0
-11 -4 -20 -10 -20 -5 0 -10 -5 -10 -11 0 -6 -6 -25 -14 -42 -8 -18 -40 -93
-71 -167 -32 -74 -68 -157 -80 -185 -13 -27 -42 -95 -64 -150 -23 -55 -51
-118 -61 -140 -17 -35 -50 -111 -55 -125 -3 -10 -23 -55 -40 -95 -10 -22 -19
-42 -20 -45 -1 -3 -8 -21 -17 -40 -8 -19 -21 -52 -28 -73 -8 -20 -18 -37 -23
-37 -4 0 -6 -4 -3 -9 3 -4 -1 -17 -9 -27 -8 -10 -15 -25 -15 -31 0 -7 -16 -46
-35 -87 -19 -41 -35 -78 -35 -81 0 -5 -13 -36 -61 -140 -18 -40 -41 -95 -44
-105 0 -3 -11 -26 -23 -52 -12 -26 -22 -53 -22 -59 0 -10 -2 -10 -12 0 -7 6
-13 15 -14 19 0 4 -5 18 -11 32 -49 112 -98 226 -126 290 -15 34 -38 89 -42
100 -1 3 -10 23 -19 45 -10 22 -54 123 -98 225 -94 218 -103 238 -125 288 -10
20 -18 40 -19 45 -1 4 -3 10 -4 15 -1 4 -2 10 -1 15 0 4 -3 7 -9 7 -5 0 -10 9
-10 20 0 11 -5 20 -11 20 -6 0 -9 7 -5 15 3 8 1 15 -4 15 -6 0 -10 6 -10 14 0
8 -8 29 -17 48 -30 60 -33 68 -33 83 0 8 -4 15 -10 15 -5 0 -10 9 -10 19 0 11
-4 23 -10 26 -5 3 -10 15 -10 26 0 10 -4 19 -10 19 -5 0 -10 7 -10 15 0 8 -4
23 -9 33 -12 23 -96 215 -97 222 0 3 -12 31 -27 64 -15 32 -27 60 -27 62 0 2
-13 33 -30 69 -16 36 -30 68 -30 70 0 2 -11 28 -24 57 -13 29 -36 81 -50 115
-14 35 -37 86 -50 115 -13 29 -40 94 -61 143 -21 50 -48 113 -60 140 -13 28
-32 73 -44 100 -12 28 -29 65 -39 84 l-17 33 -463 2 c-403 1 -463 -1 -466 -14z"/>
<path d="M21895 21810 c-111 -12 -179 -22 -188 -27 -4 -2 -20 -7 -35 -9 -15
-3 -45 -10 -67 -16 -22 -6 -47 -11 -55 -12 -8 -2 -28 -8 -45 -15 -16 -7 -37
-14 -45 -15 -8 -1 -28 -8 -43 -14 -16 -7 -30 -12 -33 -12 -2 0 -38 -16 -80
-35 -41 -19 -80 -35 -85 -35 -5 0 -9 -5 -9 -10 0 -5 -4 -9 -8 -7 -5 1 -46 -22
-93 -51 -46 -29 -93 -58 -104 -65 -11 -6 -22 -15 -25 -18 -3 -3 -32 -28 -65
-54 -130 -103 -282 -275 -377 -427 -30 -49 -108 -205 -128 -258 -7 -19 -16
-39 -20 -45 -4 -5 -10 -22 -14 -37 -3 -15 -11 -40 -18 -55 -6 -15 -12 -32 -13
-38 -2 -5 -8 -28 -13 -50 -12 -45 -24 -100 -27 -130 -1 -11 -5 -27 -8 -35 -14
-37 -20 -150 -20 -335 0 -182 3 -243 17 -315 3 -14 7 -41 10 -60 3 -19 9 -46
12 -60 3 -14 7 -33 8 -42 1 -10 5 -21 9 -24 4 -4 7 -16 7 -26 0 -63 170 -435
233 -508 9 -11 17 -24 17 -28 0 -5 8 -17 18 -28 10 -10 28 -35 42 -53 13 -19
39 -51 57 -70 68 -73 156 -161 160 -161 2 0 14 -10 27 -22 41 -40 64 -57 70
-51 3 4 6 2 6 -4 0 -15 172 -125 271 -174 76 -37 222 -99 244 -103 6 -1 16 -5
23 -9 6 -5 12 -6 12 -3 0 3 18 -1 40 -9 22 -8 42 -14 45 -15 3 0 6 0 8 -1 12
-4 155 -30 187 -34 211 -29 466 -23 660 16 30 6 62 13 70 14 8 2 15 4 15 5 0
1 9 3 19 5 11 2 31 7 45 11 14 4 29 8 34 9 4 2 9 4 12 5 3 1 8 3 13 4 4 1 12
4 17 8 6 3 29 11 53 18 104 27 394 188 469 259 12 12 25 21 28 21 15 0 205
186 205 201 0 6 5 7 10 4 6 -3 10 -2 10 4 0 5 6 16 13 23 6 7 29 36 49 63 21
28 41 55 45 60 53 69 155 262 201 380 34 88 77 239 86 299 4 21 9 48 11 60 5
19 8 44 20 151 4 40 8 271 5 290 -1 6 -2 28 -2 50 0 22 -3 44 -5 49 -3 5 -7
27 -9 50 -3 43 -6 61 -28 171 -19 97 -105 344 -127 370 -5 5 -9 17 -9 27 0 10
-3 18 -7 18 -5 0 -19 24 -33 53 -13 28 -29 57 -35 62 -5 6 -18 26 -28 45 -10
19 -26 46 -37 60 -11 14 -41 52 -68 86 -26 34 -54 68 -62 76 -8 9 -41 43 -73
77 -32 33 -60 61 -63 61 -3 0 -27 18 -52 41 -26 23 -87 68 -137 100 -49 33
-94 63 -100 67 -5 5 -25 15 -42 22 -18 8 -33 19 -33 23 0 5 -5 5 -11 2 -5 -4
-18 0 -27 8 -9 9 -29 19 -44 22 -16 4 -28 11 -28 17 0 5 -4 6 -10 3 -5 -3 -10
-1 -10 6 0 7 -3 10 -6 6 -4 -3 -34 5 -69 17 -90 35 -280 84 -350 92 -11 1 -38
5 -60 8 -62 10 -352 14 -430 6z m335 -874 c131 -20 285 -83 385 -159 58 -43
175 -160 175 -174 0 -3 7 -14 14 -22 48 -53 135 -262 150 -358 3 -21 8 -51 11
-68 13 -63 8 -315 -6 -315 -5 0 -6 -6 -3 -14 4 -11 -8 -71 -35 -171 -27 -98
-131 -267 -210 -343 -74 -69 -181 -149 -181 -134 0 4 -4 3 -8 -3 -15 -22 -167
-79 -237 -91 -16 -2 -54 -8 -84 -13 -56 -9 -224 -7 -276 3 -16 3 -41 8 -55 11
-35 7 -164 48 -170 55 -3 3 -25 15 -50 28 -25 13 -55 29 -67 36 -42 24 -140
111 -174 155 -19 23 -40 49 -47 56 -34 37 -126 234 -135 290 -1 11 -5 25 -9
30 -6 10 -16 76 -25 160 -6 62 -5 186 2 240 3 22 7 56 9 76 2 20 7 42 11 48 4
7 8 22 10 34 4 34 44 135 82 206 54 103 125 187 218 260 59 47 182 118 214
125 9 2 28 8 44 14 97 40 312 58 447 38z"/>
<path d="M25645 21812 c-158 -11 -480 -92 -567 -142 -10 -5 -25 -10 -33 -10
-8 0 -15 -4 -15 -10 0 -5 -9 -10 -19 -10 -11 0 -26 -7 -35 -15 -8 -8 -22 -15
-30 -15 -9 0 -16 -5 -16 -11 0 -5 -4 -8 -9 -5 -5 4 -11 3 -13 -1 -1 -5 -24
-19 -50 -33 -27 -13 -48 -28 -48 -32 0 -5 -6 -8 -13 -8 -7 0 -24 -11 -39 -25
-15 -14 -30 -25 -33 -25 -23 0 -260 -225 -326 -310 -69 -87 -145 -206 -189
-295 -25 -49 -48 -92 -53 -93 -4 -2 -4 -8 -1 -13 3 -6 1 -15 -4 -22 -18 -21
-80 -217 -102 -322 -33 -156 -42 -245 -40 -425 1 -175 2 -200 9 -200 3 0 7
-28 9 -62 2 -34 7 -67 12 -74 6 -6 8 -13 5 -16 -10 -9 53 -243 82 -307 8 -18
16 -39 17 -45 2 -15 107 -229 115 -236 3 -3 15 -21 25 -40 28 -50 112 -165
160 -217 95 -105 220 -222 265 -247 9 -5 21 -14 28 -20 33 -29 43 -36 53 -36
5 0 10 -4 10 -10 0 -5 5 -10 11 -10 6 0 23 -8 37 -19 61 -42 319 -164 352
-166 3 0 11 -4 18 -8 6 -5 12 -6 12 -2 0 3 8 1 18 -4 20 -11 65 -22 95 -24 9
-1 17 -5 17 -9 0 -4 3 -7 8 -6 4 1 27 -2 52 -7 25 -5 53 -10 63 -11 9 -1 18
-2 20 -4 2 -2 37 -6 132 -16 118 -12 393 -6 465 10 14 3 39 7 55 10 17 2 54
10 83 16 30 7 61 13 70 15 9 2 17 4 17 5 0 1 7 3 15 5 54 11 286 100 300 115
3 3 12 6 20 8 8 2 32 14 52 28 21 13 40 24 44 24 20 0 212 141 289 212 22 20
49 45 60 55 48 43 168 188 211 255 69 108 74 117 73 124 0 4 3 10 8 13 11 7
72 131 103 211 43 109 94 295 104 380 3 19 5 35 6 35 13 0 22 493 9 501 -5 3
-7 9 -5 13 3 4 0 36 -5 72 -14 87 -15 90 -22 124 -4 17 -9 39 -12 50 -6 32
-52 177 -65 210 -7 17 -19 46 -27 65 -21 50 -77 164 -84 170 -4 3 -9 15 -13
28 -4 12 -12 22 -17 22 -6 0 -7 5 -4 10 3 6 1 10 -4 10 -6 0 -11 5 -11 10 0 6
-4 16 -10 23 -5 7 -38 50 -72 97 -75 102 -225 254 -328 332 -77 59 -255 169
-278 172 -7 1 -18 8 -24 14 -7 7 -19 12 -28 12 -9 0 -20 4 -25 9 -10 8 -149
63 -160 62 -2 0 -20 6 -40 15 -19 8 -35 12 -35 10 0 -3 -18 1 -39 9 -89 31
-294 57 -461 59 -91 0 -183 0 -205 -2z m374 -886 c160 -35 309 -115 424 -228
66 -65 153 -188 176 -249 7 -19 22 -54 33 -77 10 -24 20 -57 21 -73 1 -16 5
-29 8 -29 3 0 6 -6 6 -12 0 -14 10 -78 18 -118 11 -59 6 -237 -10 -335 -14
-88 -88 -305 -104 -305 -3 0 -12 -15 -20 -32 -8 -18 -17 -35 -20 -38 -4 -3
-26 -30 -51 -60 -25 -30 -56 -64 -69 -74 -13 -11 -31 -27 -40 -36 -40 -41
-153 -106 -256 -145 -24 -10 -14 -7 -110 -29 -102 -24 -362 -26 -400 -4 -6 3
-28 9 -49 13 -40 7 -167 54 -176 64 -3 4 -18 12 -35 20 -39 17 -130 86 -176
133 -109 113 -203 284 -234 428 -37 172 -37 408 1 523 4 12 9 29 10 37 4 23
10 42 23 75 6 17 17 44 23 60 17 44 108 189 124 198 8 5 12 12 9 18 -4 5 0 9
7 9 7 0 22 14 33 30 11 16 26 30 33 30 6 0 12 4 12 9 0 10 97 83 104 78 2 -1
12 5 22 14 23 20 124 71 124 62 0 -3 7 0 15 7 8 7 15 9 15 5 0 -4 6 -3 13 2
14 12 92 31 156 38 25 3 46 7 48 9 10 9 226 -4 292 -18z"/>
<path d="M34018 21816 c-1 -2 -37 -7 -78 -10 -117 -10 -288 -48 -380 -83 -8
-4 -17 -7 -20 -7 -50 -12 -262 -113 -272 -130 -4 -6 -8 -7 -8 -3 0 8 -171
-105 -201 -133 -8 -8 -29 -26 -45 -39 -44 -36 -153 -141 -147 -141 3 0 -6 -12
-20 -26 -14 -14 -45 -51 -69 -82 -24 -31 -49 -63 -55 -70 -7 -7 -13 -20 -13
-28 0 -8 -4 -14 -8 -14 -5 0 -28 -36 -53 -80 -24 -44 -48 -80 -53 -80 -5 0 -6
-3 -3 -7 4 -3 0 -17 -8 -30 -9 -13 -13 -23 -9 -23 4 0 0 -7 -7 -16 -7 -9 -14
-25 -16 -37 -2 -11 -7 -25 -12 -31 -16 -19 -68 -180 -86 -266 -2 -8 -4 -15 -5
-15 -2 0 -7 -24 -15 -70 -4 -22 -8 -42 -10 -46 -7 -10 -19 -153 -20 -216 0
-35 -3 -63 -6 -63 -4 0 -5 -15 -2 -32 2 -18 4 -40 4 -48 0 -8 -1 -33 -1 -55
-1 -50 8 -171 15 -205 2 -14 7 -41 10 -60 13 -84 49 -226 77 -302 16 -46 35
-99 41 -118 6 -19 14 -37 17 -40 3 -3 14 -25 25 -50 10 -25 25 -52 32 -61 7
-9 10 -19 6 -22 -3 -4 -2 -7 4 -7 6 0 14 -11 17 -25 4 -14 11 -25 16 -25 6 0
10 -5 10 -11 0 -10 77 -129 90 -139 3 -3 13 -15 21 -27 26 -38 112 -134 159
-178 89 -84 135 -124 142 -125 4 0 13 -6 20 -13 28 -28 249 -167 265 -167 3 0
31 -12 62 -26 85 -40 163 -69 211 -79 8 -2 15 -4 15 -5 0 -1 7 -3 15 -5 56
-14 78 -18 98 -19 12 -1 22 -4 22 -8 0 -4 8 -7 18 -7 9 0 37 -2 62 -6 110 -15
143 -17 270 -16 148 0 227 6 330 26 19 4 44 9 55 11 11 1 35 7 53 13 17 5 32
7 32 4 0 -3 7 0 15 7 8 6 19 9 25 5 5 -3 10 -2 10 2 0 5 8 9 18 10 37 3 326
131 342 152 3 3 22 15 43 26 20 11 37 23 37 27 0 5 6 8 13 8 8 0 22 9 32 20
10 11 22 17 26 14 5 -3 9 -1 9 4 0 5 26 30 58 55 211 168 416 452 512 712 12
33 26 68 31 77 5 10 9 26 9 35 0 17 -27 18 -471 17 -454 -1 -472 -1 -482 -20
-6 -10 -9 -19 -6 -20 2 0 -3 -7 -11 -16 -8 -9 -31 -35 -50 -59 -34 -42 -68
-76 -120 -118 -14 -11 -30 -25 -35 -29 -31 -26 -190 -95 -260 -113 -83 -22
-284 -31 -370 -17 -264 43 -473 199 -581 434 -40 87 -80 216 -80 254 l1 34
1263 0 c1262 0 1263 0 1267 21 14 63 20 308 11 406 -12 116 -19 163 -26 190
-6 20 -5 29 3 29 8 0 9 3 1 8 -5 4 -16 34 -24 67 -16 68 -15 65 -22 85 -3 8
-12 35 -19 60 -16 57 -15 52 -23 75 -4 11 -14 32 -22 48 -8 15 -13 27 -9 27 3
0 -11 33 -32 73 -20 39 -38 79 -39 87 -2 8 -8 16 -13 18 -6 2 -11 8 -11 13 0
6 -16 35 -35 65 -19 30 -35 58 -35 63 0 5 -4 11 -8 13 -4 2 -21 21 -37 43 -43
57 -57 75 -82 101 -13 13 -23 26 -23 29 0 9 -113 115 -185 173 -38 32 -71 60
-73 65 -2 4 -8 7 -13 7 -9 0 -65 36 -79 50 -17 17 -221 120 -237 120 -7 0 -13
5 -13 12 0 6 -3 9 -6 6 -3 -3 -33 5 -67 18 -33 13 -69 24 -79 24 -10 0 -18 3
-18 8 0 4 -10 8 -22 8 -13 1 -50 9 -83 17 -33 8 -80 18 -105 21 -25 3 -56 8
-70 11 -28 6 -336 15 -342 11z m216 -801 c191 -15 363 -93 492 -222 80 -80
168 -224 217 -353 l25 -66 -812 1 c-716 0 -811 2 -808 15 2 8 6 26 9 40 2 14
8 29 14 35 5 5 9 16 9 25 0 47 118 237 193 312 116 116 292 200 445 212 23 2
45 6 48 9 5 5 19 4 168 -8z"/>
<path d="M27484 21720 l-32 -5 40 -100 c22 -55 44 -109 49 -120 4 -11 18 -45
29 -75 12 -30 27 -68 34 -85 27 -61 58 -144 55 -147 -1 -2 4 -14 11 -28 8 -14
15 -29 16 -35 3 -10 77 -194 93 -230 15 -34 119 -299 127 -325 4 -14 7 -28 6
-32 -1 -5 2 -8 7 -8 7 0 36 -69 46 -110 1 -3 8 -18 15 -35 7 -16 13 -33 12
-37 -1 -5 3 -8 8 -8 5 0 9 -3 9 -7 -1 -5 0 -11 1 -15 1 -5 3 -11 4 -15 2 -9
51 -130 77 -190 11 -24 19 -45 19 -47 0 -3 5 -17 12 -33 6 -15 12 -30 12 -33
1 -3 14 -36 30 -75 41 -101 58 -144 60 -155 1 -3 7 -15 14 -27 7 -13 11 -23 8
-23 -3 0 1 -12 9 -27 8 -15 12 -30 9 -35 -3 -4 -1 -8 5 -8 5 0 12 -10 16 -22
6 -22 29 -83 46 -123 13 -31 32 -79 35 -90 1 -5 16 -43 33 -84 17 -41 31 -79
31 -86 0 -7 7 -18 15 -25 9 -7 14 -15 11 -17 -2 -2 14 -48 36 -101 22 -53 41
-101 42 -107 5 -17 17 -48 38 -95 11 -25 21 -49 23 -55 1 -5 7 -23 14 -40 7
-16 23 -59 37 -95 14 -36 31 -78 39 -95 7 -16 32 -79 55 -140 24 -60 51 -128
60 -150 l18 -40 418 0 417 1 47 119 c26 66 50 129 54 140 4 11 13 34 19 50 7
17 12 32 12 35 0 3 6 15 13 26 6 12 8 24 5 28 -3 3 -1 6 6 6 6 0 11 6 10 13
-1 6 4 26 11 42 7 17 14 35 16 40 1 6 37 98 79 205 42 107 78 200 79 205 2 6
9 24 15 40 21 49 29 70 30 78 0 4 8 21 16 37 8 16 16 33 16 37 1 9 10 30 30
78 7 17 11 34 10 38 -1 5 5 20 13 35 8 15 41 95 72 177 78 205 213 554 226
585 6 14 12 32 14 40 2 8 7 23 13 35 15 33 24 59 23 68 -1 4 2 7 8 7 6 0 9 3
9 8 -1 4 0 10 1 15 1 4 3 10 5 15 2 9 14 40 25 67 4 11 18 47 31 80 12 33 30
78 39 100 9 22 27 69 40 105 13 36 27 70 32 77 6 7 7 16 4 22 -3 5 -3 11 2 13
4 1 31 66 60 143 29 77 57 149 62 160 13 28 101 258 104 270 2 6 11 28 21 50
9 22 18 45 19 50 2 6 10 28 19 49 10 22 15 41 12 44 -2 3 -212 5 -466 6 l-461
1 -13 -32 c-8 -18 -30 -81 -50 -140 -20 -60 -40 -117 -45 -128 -5 -11 -18 -49
-30 -85 -12 -36 -25 -74 -30 -85 -4 -11 -15 -42 -25 -70 -9 -27 -19 -57 -23
-65 -3 -8 -7 -19 -7 -25 -1 -5 -7 -23 -13 -38 -7 -16 -12 -35 -12 -43 0 -8 -4
-14 -8 -14 -5 0 -9 -6 -9 -12 0 -7 -17 -60 -38 -118 -20 -58 -41 -121 -47
-140 -5 -19 -14 -39 -19 -45 -5 -5 -9 -19 -9 -30 0 -12 -3 -24 -6 -28 -8 -7
-74 -192 -99 -277 -3 -8 -15 -40 -36 -94 -10 -27 -19 -52 -19 -57 0 -4 -5 -20
-12 -36 -6 -15 -12 -30 -13 -33 -20 -68 -31 -96 -40 -102 -5 -4 -7 -8 -3 -8 6
0 -27 -107 -49 -160 -3 -8 -7 -17 -8 -20 -1 -3 -5 -14 -9 -25 -4 -11 -12 -31
-16 -45 -4 -14 -12 -34 -16 -45 -4 -11 -8 -22 -9 -25 -1 -3 -4 -12 -7 -20 -3
-8 -13 -37 -23 -65 -9 -27 -19 -57 -22 -65 -8 -20 -9 -21 -18 -55 -4 -16 -13
-38 -20 -47 -12 -19 -17 -8 -152 377 -25 72 -49 139 -54 150 -5 11 -13 34 -18
50 -5 17 -26 75 -46 130 -21 55 -40 112 -42 128 -3 15 -9 27 -14 27 -5 0 -9
14 -9 30 0 17 -4 30 -9 30 -8 0 -25 56 -22 73 0 4 -3 7 -7 7 -4 0 -8 8 -9 18
-1 9 -7 31 -14 47 -7 17 -13 32 -14 35 -1 3 -4 12 -8 20 -11 30 -119 335 -122
345 -1 6 -5 18 -9 27 -4 9 -9 22 -10 30 -2 7 -9 27 -15 43 -7 17 -14 35 -15
40 -2 6 -6 18 -10 27 -4 9 -9 22 -10 30 -2 7 -8 24 -14 38 -11 25 -19 51 -20
60 0 4 -14 42 -38 105 -4 11 -8 23 -9 28 -2 4 -4 9 -5 12 -1 3 -3 8 -5 13 -1
4 -7 20 -13 35 -7 16 -12 30 -12 32 0 2 -5 16 -12 32 -6 15 -12 33 -13 39 -2
7 -17 52 -35 100 -17 49 -33 95 -35 102 -3 6 -15 12 -27 13 -104 4 -890 3
-914 -1z"/>
<path d="M31183 21722 l-22 -3 2 -1717 2 -1716 443 -1 c244 0 447 2 451 5 4 3
8 776 8 1718 l0 1712 -21 1 c-68 2 -845 3 -863 1z"/>
<path d="M18073 17966 c-9 -13 -7 -835 1 -843 11 -12 326 -10 326 2 0 7 3 6 8
0 9 -14 304 -14 314 0 5 7 8 7 8 0 0 -8 194 -13 231 -6 4 0 6 193 7 429 l0
427 -445 0 c-251 0 -447 -4 -450 -9z"/>
<path d="M14680 17685 c0 -7 -34 -10 -90 -10 -75 1 -90 -1 -91 -14 0 -23 0
-820 0 -856 1 -29 2 -30 47 -28 25 0 48 4 51 7 3 3 14 1 25 -5 13 -7 23 -7 32
0 7 6 15 8 19 5 7 -7 557 -8 564 0 3 3 14 1 25 -5 13 -7 23 -7 32 0 7 6 15 8
19 5 3 -3 93 -5 200 -5 l195 1 1 -1748 c0 -961 0 -1762 1 -1781 0 -28 3 -33
20 -28 11 3 20 0 20 -6 0 -8 3 -8 8 -2 8 12 252 14 252 2 0 -5 5 -5 11 -1 18
11 209 10 209 -1 0 -7 3 -7 8 0 8 12 252 14 252 2 0 -5 5 -5 11 -1 7 4 42 7
78 8 l66 1 1 1765 c1 971 2 1771 3 1777 1 10 111 12 492 12 270 0 493 2 496 5
3 3 14 1 25 -5 13 -7 23 -7 31 0 7 5 18 7 24 3 6 -4 40 -6 75 -4 l63 4 1 441
c0 386 -2 443 -15 454 -9 6 -20 8 -26 5 -17 -10 -115 -8 -115 3 0 6 -3 6 -8
-1 -9 -13 -114 -13 -124 1 -5 7 -8 7 -8 0 0 -9 -175 -14 -205 -5 -5 1 -12 1
-15 0 -14 -6 -127 -5 -141 2 -9 4 -19 4 -23 1 -11 -11 -116 -10 -116 2 0 6 -3
6 -8 -1 -9 -13 -114 -13 -124 1 -5 7 -8 7 -8 0 0 -9 -175 -14 -205 -5 -5 1
-12 1 -15 0 -14 -6 -127 -5 -141 2 -9 4 -19 4 -23 1 -11 -11 -116 -10 -116 2
0 6 -3 6 -8 -1 -9 -13 -114 -13 -124 1 -5 7 -8 7 -8 0 0 -9 -175 -14 -205 -5
-5 1 -12 1 -15 0 -14 -6 -127 -5 -141 2 -9 4 -19 4 -23 1 -11 -11 -116 -10
-116 2 0 6 -3 6 -8 -1 -9 -13 -114 -13 -124 1 -5 7 -8 7 -8 0 0 -9 -175 -14
-205 -5 -5 1 -12 1 -15 0 -18 -8 -120 -4 -120 5 0 6 -3 6 -8 -1 -8 -12 -151
-12 -170 0 -7 4 -12 3 -12 -2 0 -7 -128 -9 -155 -2 -5 1 -12 1 -15 0 -18 -8
-120 -4 -120 5 0 6 -3 6 -8 -1 -9 -13 -114 -13 -124 1 -5 7 -8 7 -8 0z"/>
<path d="M26487 16753 c-2 -1 -41 -4 -87 -7 -47 -3 -97 -8 -111 -11 -14 -2
-42 -6 -62 -7 -20 -2 -37 -7 -37 -12 0 -4 -7 -6 -15 -3 -8 4 -17 2 -21 -4 -3
-6 -13 -8 -21 -5 -9 4 -21 2 -27 -2 -13 -10 -108 -38 -118 -34 -5 1 -8 -3 -8
-9 0 -5 -4 -8 -10 -4 -5 3 -17 1 -27 -5 -16 -9 -69 -31 -83 -35 -3 0 -15 -6
-27 -13 -13 -7 -23 -9 -23 -5 0 4 -4 3 -8 -2 -4 -6 -20 -17 -37 -25 -43 -20
-168 -93 -182 -105 -6 -5 -37 -28 -67 -49 -31 -22 -56 -43 -56 -48 0 -4 -5 -8
-12 -8 -17 0 -258 -248 -258 -266 0 -3 -7 -12 -15 -21 -46 -45 -175 -273 -223
-393 -22 -56 -68 -187 -71 -205 -6 -30 -13 -62 -18 -75 -3 -8 -7 -26 -9 -40
-1 -14 -5 -36 -8 -50 -7 -26 -18 -111 -20 -145 -1 -11 -4 -24 -7 -30 -10 -17
2 -480 12 -480 1 0 3 -13 4 -30 2 -16 4 -30 5 -30 2 0 8 -26 14 -65 8 -45 20
-96 28 -120 3 -8 20 -60 38 -115 43 -134 118 -286 204 -414 38 -58 75 -111 81
-118 5 -6 30 -34 55 -63 25 -29 65 -71 89 -93 24 -23 53 -51 65 -62 90 -88
356 -258 410 -263 5 0 12 -4 15 -10 12 -18 254 -98 356 -116 17 -3 59 -11 95
-18 39 -7 146 -12 265 -12 162 1 221 5 310 23 143 28 137 26 162 35 12 4 30 9
40 11 10 2 50 16 88 30 39 15 88 34 110 42 22 8 43 20 47 26 4 7 8 9 8 5 0
-13 222 117 267 157 6 5 26 21 44 35 33 25 142 123 163 147 6 7 29 33 51 58
44 49 47 53 90 110 39 52 75 105 75 110 0 2 11 21 25 41 25 37 126 239 129
258 1 6 4 16 7 21 7 12 32 84 35 102 2 9 -111 12 -469 11 l-472 0 -40 -60
c-78 -117 -211 -223 -348 -278 -65 -26 -85 -32 -152 -45 -135 -26 -364 -17
-427 16 -10 5 -18 7 -18 5 0 -8 -118 44 -171 75 -77 45 -164 127 -215 202 -16
23 -32 44 -36 45 -5 2 -8 12 -8 23 0 10 -4 19 -9 19 -5 0 -13 10 -17 22 -3 12
-13 37 -22 57 -9 20 -17 39 -18 44 -1 4 -3 10 -4 15 -1 4 -2 10 -1 15 0 4 -3
7 -7 7 -4 0 -8 8 -9 18 -1 17 -8 49 -17 80 -3 9 -7 29 -10 44 l-4 26 1260 0
c882 0 1264 4 1271 11 6 6 13 32 15 58 7 80 6 334 -1 398 -4 33 -9 78 -12 100
-2 22 -7 51 -11 65 -4 14 -8 36 -9 50 -1 14 -4 26 -5 28 -1 1 -4 7 -5 12 -1 6
-4 13 -5 18 -1 4 -2 10 -1 14 0 4 -4 19 -9 33 -5 14 -12 36 -14 48 -6 26 -41
127 -63 177 -38 88 -129 266 -143 280 -15 15 -50 71 -50 80 0 5 -4 10 -9 10
-4 0 -20 17 -33 38 -52 78 -213 241 -304 307 -15 11 -33 26 -40 33 -7 6 -15
12 -18 12 -3 0 -35 20 -71 45 -37 25 -77 48 -91 51 -13 3 -24 10 -24 15 0 5
-4 9 -10 9 -5 0 -40 14 -77 31 -99 45 -174 74 -223 84 -8 2 -16 4 -17 5 -2 2
-11 3 -20 4 -10 1 -27 5 -38 9 -11 3 -33 9 -50 12 -16 3 -40 8 -52 10 -53 11
-79 14 -165 21 -94 7 -218 11 -221 7z m243 -812 c109 -23 163 -43 242 -87 108
-61 198 -145 270 -250 42 -63 100 -177 105 -209 2 -10 7 -22 12 -25 4 -3 10
-17 13 -32 l5 -28 -810 0 -809 0 7 23 c4 12 7 32 8 45 1 12 4 22 8 22 4 0 10
12 13 26 9 36 48 118 58 122 4 2 8 10 8 17 0 17 76 118 131 175 75 76 226 165
317 186 141 33 313 39 422 15z"/>
<path d="M21215 16731 c-2 -2 -25 -5 -52 -7 -26 -3 -55 -7 -63 -11 -8 -3 -24
-7 -35 -8 -11 -1 -27 -4 -35 -7 -8 -4 -42 -14 -75 -24 -125 -36 -317 -141
-423 -232 -53 -45 -152 -141 -152 -147 0 -2 -11 -15 -24 -30 -26 -28 -34 -24
-55 35 -8 19 -20 49 -27 67 -8 17 -14 34 -14 38 0 3 -10 27 -21 53 -12 25 -22
51 -24 57 -1 5 -6 21 -12 35 -6 14 -16 42 -24 62 -7 21 -20 40 -28 42 -9 2
-152 4 -318 4 l-303 0 0 -27 c-1 -34 -1 -3371 -1 -3392 1 -14 14 -16 91 -15
56 1 90 -2 90 -9 0 -5 4 -4 9 3 4 8 12 14 16 14 4 0 12 -6 16 -14 5 -7 9 -8 9
-3 0 13 183 13 192 0 5 -7 8 -6 8 1 0 6 7 11 15 11 8 0 15 -4 15 -9 0 -5 5 -6
11 -2 18 11 189 11 189 -1 0 -5 4 -4 9 3 4 8 12 14 16 14 4 0 12 -6 16 -14 5
-7 9 -8 9 -3 0 6 38 10 97 9 l98 -1 0 981 c0 539 4 1012 8 1050 9 80 45 237
58 251 5 5 9 17 9 27 0 10 5 18 11 18 6 0 9 7 5 15 -3 8 -2 15 2 15 4 0 13 15
21 33 18 41 73 110 131 164 44 42 160 107 210 117 96 21 125 24 205 22 108 -3
175 -20 235 -60 61 -39 137 -121 152 -162 7 -19 16 -34 20 -34 4 0 8 -9 8 -19
0 -11 4 -22 9 -25 4 -3 12 -20 16 -38 4 -18 9 -37 10 -43 4 -14 15 -66 20 -95
13 -69 17 -349 18 -1240 l2 -975 60 0 c33 1 63 -4 67 -10 5 -7 8 -7 8 1 0 6 7
11 15 11 8 0 15 -4 15 -9 0 -5 5 -6 11 -2 18 11 189 11 189 -1 0 -5 4 -4 9 3
4 8 12 14 16 14 4 0 12 -6 16 -14 5 -7 9 -8 9 -3 0 13 183 13 192 0 5 -7 8 -6
8 1 0 6 7 11 15 11 8 0 15 -4 15 -9 0 -5 5 -6 11 -2 18 11 188 10 193 -1 3 -5
5 -5 5 2 1 7 7 10 14 8 9 -4 12 195 11 974 0 894 2 1033 21 1141 17 99 53 200
101 287 37 67 142 179 190 203 16 8 35 19 42 24 18 13 108 45 152 54 58 11
285 5 285 -8 0 -1 8 -3 18 -5 43 -8 114 -52 162 -101 52 -51 130 -187 119
-205 -3 -5 0 -9 5 -9 6 0 10 -3 9 -7 -1 -5 3 -26 9 -48 26 -92 46 -395 29
-423 -3 -6 0 -13 6 -16 11 -5 11 -7 0 -12 -6 -3 -10 -10 -7 -14 7 -12 8 -1228
0 -1239 -3 -5 1 -12 7 -15 9 -4 10 -8 2 -11 -6 -3 -9 -16 -7 -28 2 -12 5 -139
6 -282 l2 -260 28 1 c15 1 27 -3 27 -8 0 -5 5 -6 11 -2 18 11 189 11 189 -1 0
-5 4 -4 9 3 4 8 12 14 16 14 4 0 12 -6 16 -14 5 -7 9 -8 9 -3 0 13 183 13 192
0 5 -7 8 -6 8 1 0 6 7 11 15 11 8 0 15 -4 15 -9 0 -5 5 -6 11 -2 18 11 189 11
189 -1 0 -5 4 -4 9 3 4 8 12 14 16 14 4 0 12 -6 16 -14 5 -7 9 -8 9 -3 0 6 26
10 57 10 l58 0 0 1140 c-1 1041 -3 1220 -20 1295 -3 14 -8 39 -10 55 -8 58
-16 91 -51 194 -80 241 -218 451 -377 574 -15 12 -38 30 -50 40 -12 11 -42 31
-67 45 -25 14 -47 29 -50 33 -3 3 -51 24 -106 47 -92 36 -208 67 -304 79 -64
8 -313 3 -340 -7 -3 -2 -8 -2 -11 -2 -3 1 -29 -5 -57 -13 -29 -7 -52 -11 -52
-8 0 3 -6 1 -12 -5 -7 -6 -30 -13 -51 -17 -20 -4 -40 -11 -43 -16 -3 -5 -12
-9 -20 -9 -27 0 -257 -118 -274 -141 -3 -4 -27 -23 -55 -44 -64 -48 -191 -177
-229 -232 -16 -24 -30 -43 -32 -43 -1 0 -12 15 -23 33 -11 18 -29 44 -41 56
-11 13 -20 27 -20 31 0 11 -163 175 -200 200 -19 13 -37 27 -40 31 -7 8 -150
89 -159 89 -4 0 -24 9 -46 20 -22 11 -47 20 -57 20 -9 0 -20 5 -23 11 -4 6
-13 8 -21 5 -7 -3 -16 -1 -20 5 -3 6 -12 8 -19 5 -7 -2 -16 -1 -21 4 -8 7 -36
13 -139 25 -16 2 -30 4 -30 5 0 3 -227 5 -230 1z"/>
<path d="M18170 16662 c0 -4 -22 -6 -50 -5 -41 2 -50 -1 -51 -15 -1 -23 -1
-3394 0 -3409 1 -7 14 -12 34 -11 19 1 40 -3 47 -7 8 -5 11 -4 7 2 -4 7 5 10
23 9 17 0 30 -4 30 -8 0 -4 6 -5 13 -2 23 8 187 10 187 1 0 -4 5 -5 12 -1 15
10 193 8 209 -1 7 -5 10 -4 6 2 -4 7 5 10 23 9 17 0 30 -4 30 -8 0 -4 6 -5 13
-2 23 8 187 10 187 1 0 -4 5 -5 11 -1 7 4 26 7 43 8 l31 1 0 1715 0 1715 -71
1 c-39 1 -76 4 -83 8 -6 4 -11 4 -11 -1 0 -9 -600 -9 -624 0 -9 4 -16 3 -16
-1z"/>
</g>
</svg>
